<?xml version="1.0" encoding="UTF-8" standalone="no"?>
<!DOCTYPE svg PUBLIC "-//W3C//DTD SVG 1.1//EN" "http://www.w3.org/Graphics/SVG/1.1/DTD/svg11.dtd">
<svg width="100%" height="100%" viewBox="0 0 978 379" version="1.1" xmlns="http://www.w3.org/2000/svg" xmlns:xlink="http://www.w3.org/1999/xlink" xml:space="preserve" xmlns:serif="http://www.serif.com/" style="fill-rule:evenodd;clip-rule:evenodd;stroke-linejoin:round;stroke-miterlimit:2;">
    <g id="Layer-1" serif:id="Layer 1" transform="matrix(1,0,0,1,-111,-210.536)">
        <g transform="matrix(1,0,0,1,831.483,414.77)">
            <path d="M0,-12.186C1.977,-15.461 2.815,-18.85 2.447,-21.925C0.72,-18.704 0.564,-15.394 0,-12.186M-21.176,24.988C-20.479,24.433 -19.61,24.001 -19.112,23.303C-15.716,18.547 -12.381,13.747 -9.072,8.928C-8.571,8.199 -8.314,7.302 -7.942,6.479C-9.048,5.11 -10.035,3.888 -11.153,2.504C-11.66,3.188 -12.147,3.66 -12.412,4.233C-15.137,10.146 -17.854,16.063 -20.492,22.014C-20.902,22.939 -20.908,24.043 -21.101,25.063C-21.157,25.146 -21.214,25.228 -21.271,25.311C-21.239,25.203 -21.208,25.095 -21.176,24.988M62.96,23.876C64.567,24.096 64.911,22.668 65.525,21.761C68.899,16.771 72.182,11.718 75.517,6.701C78.037,2.91 80.524,-0.906 83.151,-4.622C84.804,-6.961 85.885,-9.48 86.616,-12.236C88.273,-18.478 90.719,-24.411 94.086,-29.937C96.542,-33.968 99.482,-37.599 103.181,-40.568C104.97,-42.004 106.896,-43.199 109.183,-43.693C114.475,-44.835 118.949,-40.962 118.352,-35.568C118.149,-33.741 117.6,-31.857 116.782,-30.211C112.515,-21.618 107.14,-13.852 99.5,-7.839C98.804,-7.291 98.009,-6.537 97.813,-5.741C96.794,-1.605 95.701,2.546 96.247,7.206C97.124,6.934 97.937,6.882 98.49,6.477C101.405,4.344 104.356,2.243 107.107,-0.091C116.524,-8.084 124.903,-17.118 132.979,-26.432C134.264,-27.915 135.102,-29.802 136.062,-31.549C138.379,-35.766 140.537,-40.074 142.988,-44.21C143.917,-45.777 145.319,-47.171 146.777,-48.29C149.115,-50.083 152.159,-49.897 154.217,-48.18C156.315,-46.429 157.031,-43.566 155.76,-40.896C155.148,-39.612 154.268,-38.255 153.135,-37.47C151.61,-36.414 150.687,-35.039 149.846,-33.521C144.027,-23.026 140.717,-11.81 140.651,0.219C140.606,8.367 140.945,16.517 141.112,24.655C142.658,25.236 143.456,24.108 144.396,23.511C154.222,17.263 163.904,10.778 173.871,4.762C189.128,-4.446 204.852,-12.809 221.38,-19.549C231.687,-23.752 242.2,-27.325 253.254,-29.048C254.172,-29.19 255.158,-29.466 256.009,-29.258C256.624,-29.107 257.292,-28.328 257.5,-27.687C257.625,-27.305 257.013,-26.507 256.54,-26.153C256.034,-25.774 255.315,-25.638 254.668,-25.497C238.95,-22.074 224.391,-15.672 210.351,-8.038C186.288,5.046 163.537,20.085 142.759,38.003C141.44,39.14 140.169,40.33 138.868,41.487C136.75,43.371 135.004,45.522 133.648,48.041C131.482,52.064 128.881,55.822 125.606,59.02C124.301,60.296 122.705,61.464 121.022,62.128C116.76,63.811 112.489,60.706 112.394,56.111C112.347,53.843 113.205,51.863 114.551,50.185C116.975,47.164 119.584,44.291 122.133,41.37C122.571,40.868 123.04,40.358 123.587,39.989C127.823,37.128 129.272,32.776 130.19,28.06C131.411,21.798 130.984,15.507 130.563,9.239C130.124,2.681 129.713,-3.854 130.6,-10.402C130.662,-10.858 130.494,-11.345 130.351,-12.461C129.117,-11.051 128.257,-10.087 127.417,-9.106C122.718,-3.615 118.138,1.985 113.282,7.335C110.595,10.295 107.554,12.966 104.468,15.521C102.742,16.951 100.704,18.128 98.626,18.981C92.783,21.377 87.197,18.873 84.919,12.973C84.305,11.384 83.954,9.695 83.404,7.78C82.037,8.509 81.668,9.676 81.151,10.656C76.842,18.825 72.612,27.036 68.264,35.184C66.312,38.842 64.264,42.461 62.027,45.95C60.891,47.724 59.45,49.442 57.785,50.71C53.431,54.028 48.03,51.62 47.38,46.183C47.239,45.008 47.333,43.758 47.574,42.596C48.198,39.584 48.753,36.532 49.711,33.619C54.894,17.853 60.192,2.126 65.443,-13.617C66.121,-15.647 66.759,-17.692 67.415,-19.73C67.394,-19.699 67.372,-19.669 67.351,-19.638C65.264,-18.824 64.719,-16.731 63.782,-15.068C59.514,-7.485 55.294,0.129 51.235,7.827C43.865,21.803 36.674,35.876 29.293,49.846C26.982,54.22 24.362,58.436 21.754,62.644C20.849,64.104 19.702,65.497 18.402,66.614C14.629,69.858 9.704,68.604 8.057,63.89C7.415,62.055 7.194,59.927 7.371,57.987C7.648,54.938 8.234,51.884 9.026,48.923C11.563,39.447 15.504,30.492 19.583,21.606C25.169,9.437 30.876,-2.677 36.427,-14.861C38.146,-18.633 39.559,-22.546 41.045,-26.421C41.563,-27.769 41.878,-29.196 42.337,-30.762C41.468,-31.091 40.877,-31.329 40.276,-31.54C38.188,-32.276 36.855,-31.543 35.586,-29.71C29.019,-20.227 21.861,-11.204 13.639,-3.086C11.073,-0.555 8.298,1.791 5.437,3.984C3.873,5.183 2.832,6.543 2.074,8.326C-1.442,16.614 -5.895,24.399 -10.989,31.808C-12.577,34.118 -14.415,36.266 -16.246,38.395C-17.288,39.607 -18.491,40.7 -19.723,41.724C-24.786,45.933 -28.096,46.418 -34.611,43.685C-34.747,43.946 -34.967,44.441 -35.247,44.898C-45.983,62.404 -58.555,78.588 -71.225,94.694C-86.048,113.537 -101.05,132.244 -117.281,149.907C-122.072,155.121 -127.267,159.998 -132.58,164.685C-135.562,167.316 -139.087,169.373 -142.514,171.445C-145.635,173.334 -149.12,174.369 -152.787,174.633C-160.199,175.168 -165.812,172.175 -169.535,165.796C-171.589,162.277 -172.562,158.376 -172.879,154.315C-173.782,142.741 -172.808,131.328 -170.248,120.002C-167.759,108.985 -163.866,98.441 -159.801,87.954C-148.699,59.314 -135.371,31.71 -120.625,4.791C-113.485,-8.243 -106.301,-21.272 -98.558,-33.95C-77.602,-68.262 -55.23,-101.617 -29.714,-132.76C-19.354,-145.405 -8.625,-157.726 3.298,-168.949C8.866,-174.19 14.648,-179.173 21.32,-182.994C25.544,-185.412 29.979,-187.25 34.958,-187.293C42.016,-187.354 47.35,-183.402 49.226,-176.625C50.162,-173.245 50.392,-169.812 49.911,-166.286C48.188,-153.639 44.87,-141.369 41.325,-129.151C35.974,-110.704 28.419,-93.12 20.289,-75.764C18.869,-72.733 17.593,-69.635 16.162,-66.61C15.597,-65.414 14.935,-64.204 14.063,-63.228C12.689,-61.691 10.847,-61.302 8.922,-62.078C7.156,-62.789 6.074,-64.226 6.124,-66.117C6.17,-67.828 6.411,-69.606 6.964,-71.219C8.7,-76.283 10.607,-81.29 12.478,-86.308C18.183,-101.616 23.891,-116.926 28.249,-132.688C31,-142.633 33.303,-152.68 34.102,-163.007C34.193,-164.204 34.181,-165.413 34.138,-166.614C34.125,-166.96 33.835,-167.296 33.539,-167.916C32.546,-167.446 31.535,-167.141 30.729,-166.555C27.154,-163.962 23.522,-161.43 20.124,-158.62C9.572,-149.895 0.036,-140.108 -9.146,-129.983C-32.77,-103.938 -53.904,-75.961 -73.438,-46.753C-97.003,-11.516 -117.989,25.187 -135.876,63.635C-142.881,78.695 -149.367,93.979 -154.825,109.677C-155.92,112.826 -156.783,116.075 -157.496,119.334C-159.069,126.527 -160.518,133.752 -160.817,141.143C-161.004,145.714 -160.745,150.25 -159.518,154.686C-159.269,155.586 -159.022,156.503 -158.631,157.345C-157.475,159.83 -155.83,160.876 -153.17,160.366C-151.096,159.966 -148.956,159.35 -147.134,158.321C-143.765,156.417 -140.48,154.306 -137.384,151.984C-128.14,145.049 -120.011,136.872 -111.979,128.612C-90.582,106.606 -70.338,83.578 -51.354,59.459C-46.803,53.677 -42.7,47.543 -38.382,41.578C-37.335,40.131 -36.741,38.669 -36.917,36.751C-37.229,33.37 -36.475,30.043 -35.178,26.942C-32.546,20.646 -29.853,14.369 -26.938,8.201C-21.095,-4.171 -14.264,-15.994 -6.565,-27.307C-5.062,-29.519 -3.51,-31.722 -1.754,-33.732C0.625,-36.455 2.467,-36.573 5.597,-34.603C6.047,-34.32 6.472,-33.94 6.966,-33.792C8.963,-33.191 9.599,-31.623 9.792,-29.812C9.947,-28.353 10.053,-26.862 9.936,-25.404C9.656,-21.937 9.232,-18.482 8.866,-15.022C8.742,-13.851 8.614,-12.679 8.475,-11.377C12.665,-12.949 27.478,-27.593 31.641,-34.151C30.979,-34.92 30.281,-35.716 29.599,-36.525C27.62,-38.873 26.587,-41.632 26.601,-44.656C26.62,-49.081 28.009,-53.094 31.007,-56.429C32.851,-58.48 35.098,-59.845 37.929,-60.108C43.647,-60.638 47.535,-56.314 46.114,-50.754C45.389,-47.913 44.238,-45.179 43.268,-42.401C42.963,-41.528 42.62,-40.667 42.211,-39.577C43.103,-39.135 43.873,-38.65 44.711,-38.356C48.965,-36.863 50.818,-33.712 50.717,-29.395C50.663,-27.137 50.355,-24.851 49.866,-22.643C47.508,-11.997 43.289,-1.994 39.01,7.975C35.26,16.71 31.384,25.392 27.59,34.109C26.977,35.517 26.5,36.984 26.526,38.702C27.523,37.147 28.562,35.619 29.511,34.036C37.567,20.598 45.563,7.124 53.665,-6.285C59.208,-15.456 64.977,-24.482 71.601,-32.933C72.41,-33.965 73.037,-35.205 73.487,-36.444C75.909,-43.113 78.254,-49.811 80.606,-56.505C80.729,-56.854 80.68,-57.264 80.735,-57.955C79.667,-58.086 78.665,-58.283 77.657,-58.32C72.438,-58.51 67.218,-58.63 62,-58.841C60.399,-58.906 58.797,-59.117 57.214,-59.375C55.75,-59.614 54.818,-60.541 54.576,-62.024C54.349,-63.417 55.288,-64.884 56.872,-65.384C57.873,-65.701 58.97,-65.789 60.03,-65.83C66.987,-66.099 73.945,-66.439 80.905,-66.51C83.46,-66.536 84.658,-67.489 85.58,-69.83C88.521,-77.298 91.698,-84.675 94.838,-92.064C95.357,-93.287 96.074,-94.445 96.834,-95.54C97.357,-96.294 98.011,-97.052 98.78,-97.522C101.253,-99.032 104.231,-97.464 104.244,-94.573C104.25,-93.147 103.829,-91.667 103.35,-90.3C101.178,-84.11 98.909,-77.954 96.692,-71.78C96.247,-70.539 95.874,-69.272 95.423,-67.879C96.937,-66.976 98.422,-67.341 99.806,-67.421C109.563,-67.991 119.321,-68.576 129.072,-69.254C142.698,-70.201 156.316,-71.248 169.94,-72.224C183.562,-73.2 197.178,-74.283 210.812,-75.047C220.033,-75.563 229.281,-75.616 238.518,-75.854C239.17,-75.871 239.854,-75.785 240.468,-75.581C240.725,-75.496 240.911,-74.99 240.982,-74.645C241.019,-74.465 240.772,-74.074 240.591,-74.028C239.828,-73.837 239.046,-73.671 238.264,-73.619C226.777,-72.846 215.269,-72.338 203.81,-71.275C187.68,-69.78 171.58,-67.95 155.482,-66.128C136.856,-64.021 118.248,-61.76 99.63,-59.587C97.77,-59.37 95.892,-59.303 94.021,-59.168C92.695,-59.072 91.754,-58.479 91.313,-57.166C91.014,-56.278 90.637,-55.417 90.32,-54.535C83.587,-35.757 76.792,-17 70.158,1.814C67.578,9.131 65.361,16.578 62.979,23.965L63.179,24.211L62.96,23.876Z" style="fill-rule:nonzero;"/>
        </g>
        <g transform="matrix(1,0,0,1,236.916,229.462)">
            <path d="M0,336.999C0.284,337.221 0.568,337.442 0.852,337.663C2.121,336.732 3.485,335.905 4.642,334.85C8.298,331.513 11.989,328.201 15.466,324.682C29.987,309.983 42.853,293.876 55.213,277.364C70.704,256.672 85.164,235.265 98.916,213.381C108.962,197.395 118.391,181.048 127.299,164.401C127.829,163.412 128.642,162.478 128.356,160.787C127.267,161.676 126.409,162.28 125.662,163C122,166.53 118.305,170.03 114.733,173.65C95.437,193.206 77.425,213.897 60.441,235.482C43.695,256.764 28.303,278.968 15.094,302.641C9.738,312.238 4.966,322.108 1.338,332.502C0.824,333.977 0.443,335.499 0,336.999M159.727,128.179C161.228,127.372 162.285,126.851 163.296,126.251C180.897,115.813 199.519,107.721 219.211,102.161C227.855,99.721 236.639,97.921 245.678,97.677C251.501,97.52 257.17,98.178 262.593,100.426C265.091,101.462 267.395,102.793 269.312,104.732C271.607,107.053 272.599,109.895 272.571,113.105C272.568,113.522 272.126,113.936 271.603,114.847C271.167,113.455 270.814,112.623 270.651,111.754C269.981,108.184 267.879,105.757 264.745,104.091C260.4,101.781 255.723,100.776 250.855,100.547C243.279,100.191 235.893,101.497 228.63,103.432C205.042,109.716 182.9,119.341 162.228,132.354C157.314,135.447 153.686,139.58 151.074,144.697C132.219,181.639 110.143,216.611 86.27,250.476C72.452,270.077 58.021,289.22 42.859,307.805C33.29,319.534 23.489,331.072 12.832,341.84C9.73,344.974 6.393,347.887 3.028,350.742C0.876,352.569 -1.642,353.872 -4.425,354.561C-10.438,356.048 -15.427,353.247 -17.305,347.344C-18.265,344.323 -18.152,341.27 -17.623,338.203C-16.284,330.445 -13.079,323.373 -9.486,316.468C-0.617,299.422 10.241,283.659 21.77,268.337C39.514,244.756 59.063,222.728 79.366,201.343C86.554,193.77 93.316,185.786 100.652,178.366C111.48,167.415 122.775,156.935 134.53,146.972C136.62,145.2 138.208,143.199 139.407,140.718C148.624,121.64 156.936,102.201 163.292,81.964C167.638,68.128 171.094,54.113 171.837,39.548C172.187,32.693 171.922,25.9 170.247,19.201C166.706,5.039 157.803,-3.85 143.821,-7.744C136.506,-9.781 129.044,-10.062 121.507,-9.56C109.662,-8.772 98.225,-6.023 86.953,-2.486C66.791,3.838 47.842,12.887 29.526,23.319C-0.178,40.236 -27.43,60.478 -52.262,83.963C-66.31,97.249 -79.218,111.551 -90.233,127.488C-96.268,136.22 -101.543,145.367 -105.057,155.44C-106.741,160.268 -107.839,165.207 -108.062,170.341C-108.464,179.623 -104.621,186.677 -96.912,191.661C-91.31,195.283 -85.002,197.111 -78.535,198.397C-67.673,200.558 -56.695,200.547 -45.714,199.8C-29.492,198.696 -13.639,195.361 2.177,191.76C11.705,189.59 21.309,187.752 30.888,185.815C32.188,185.553 33.562,185.396 34.875,185.504C39.228,185.862 41.638,189.978 39.889,193.994C38.601,196.951 36.234,198.551 33.08,198.946C31.222,199.179 29.315,199.095 27.479,199.426C18.918,200.97 10.347,202.473 1.831,204.244C-12.065,207.136 -25.935,210.148 -40.018,212.036C-52.267,213.678 -64.562,214.312 -76.889,213.422C-86.146,212.753 -95.197,210.989 -103.761,207.198C-107.831,205.397 -111.66,203.229 -114.945,200.196C-121.669,193.988 -125.191,186.25 -125.806,177.167C-126.405,168.299 -124.519,159.857 -121.244,151.682C-116.626,140.151 -110.025,129.775 -102.584,119.901C-90.525,103.897 -76.632,89.593 -61.716,76.276C-32.796,50.456 -1.105,28.607 33.289,10.725C52.706,0.63 72.839,-7.759 94.004,-13.494C105.145,-16.513 116.434,-18.714 128.036,-18.905C136.788,-19.049 145.443,-18.5 153.778,-15.497C168.562,-10.171 178.145,0.107 182.741,15.062C185.618,24.424 185.942,34.047 185.21,43.719C184.257,56.328 181.505,68.594 177.82,80.665C173.355,95.292 167.664,109.448 161.343,123.36C160.845,124.457 160.359,125.56 159.896,126.672C159.8,126.902 159.832,127.185 159.727,128.179" style="fill-rule:nonzero;"/>
        </g>
        <g transform="matrix(1,0,0,1,483.959,397.697)">
            <path d="M0,17.098C0.859,17.03 1.039,17.072 1.112,17.001C6.237,12.113 11.417,7.279 16.435,2.283C18.217,0.508 17.888,-0.703 15.468,-3.307C9.151,2.428 4.604,9.454 0,17.098M-97.312,39.619C-92.51,35.696 -83.934,24.577 -82.71,20.82C-84.624,19.989 -86.543,19.155 -88.436,18.332C-91.413,22.451 -96.792,35.194 -97.312,39.619M-81.83,10.876C-77.91,9.693 -74.675,8.021 -72.955,5.054C-70.076,0.087 -68.379,-5.426 -68.263,-11.279C-68.252,-11.817 -68.664,-12.362 -68.957,-13.101C-69.672,-12.596 -70.226,-12.387 -70.498,-11.986C-73.79,-7.147 -77.167,-2.358 -80.243,2.617C-81.631,4.863 -82.072,7.549 -81.83,10.876M54.504,-3.293C56.024,-2.992 56.648,-4.203 57.296,-5.12C60.667,-9.889 63.98,-14.7 67.255,-19.537C67.639,-20.103 67.663,-20.912 67.961,-22.005C65.921,-21.48 65.178,-20.135 64.44,-19.002C61.041,-13.777 57.757,-8.479 54.432,-3.207L54.565,-2.987L54.504,-3.293ZM-52.049,75.858C-50.959,74.51 -49.775,73.228 -48.796,71.804C-40.602,59.884 -32.414,47.959 -24.311,35.977C-23.131,34.231 -22.267,32.23 -21.501,30.252C-15.786,15.488 -8.022,1.982 2.96,-9.525C4.701,-11.348 6.708,-12.991 8.815,-14.378C14.753,-18.286 20.786,-16.473 23.454,-11.594C23.63,-11.271 24.007,-11.056 24.441,-10.65C25.674,-11.665 25.954,-13.146 26.53,-14.419C33.764,-30.399 40.86,-46.443 48.236,-62.357C52.57,-71.709 57.328,-80.864 61.928,-90.092C62.643,-91.526 63.427,-92.948 64.365,-94.242C65.611,-95.959 67.261,-96.467 68.92,-95.905C70.691,-95.306 71.857,-93.635 71.606,-91.465C71.424,-89.898 70.96,-88.305 70.317,-86.86C66.068,-77.319 61.85,-67.762 57.411,-58.309C47.105,-36.365 37.055,-14.31 27.993,8.184C22.738,21.231 17.817,34.398 13.708,47.858C13.317,49.136 12.981,50.434 12.663,51.733C12.578,52.082 12.65,52.471 12.65,53.494C13.625,52.036 14.359,51.115 14.907,50.092C20.975,38.759 27.022,27.414 33.045,16.057C33.605,15.001 34.063,13.864 34.385,12.712C38.109,-0.631 44.704,-12.525 52.811,-23.632C54.459,-25.891 56.41,-27.962 58.425,-29.908C59.753,-31.189 61.354,-32.268 62.996,-33.126C67.007,-35.223 71.836,-33.848 73.656,-29.908C74.205,-28.722 74.939,-28.025 76.2,-27.61C78.285,-26.924 78.99,-25.215 78.82,-23.154C78.71,-21.827 78.485,-20.499 78.188,-19.199C76.966,-13.846 75.677,-8.509 74.456,-3.156C74.167,-1.888 74.045,-0.582 73.747,1.348C74.948,0.59 75.687,0.306 76.174,-0.212C82.321,-6.748 88.492,-13.263 94.503,-19.923C95.806,-21.365 96.709,-23.273 97.442,-25.109C100.672,-33.192 103.761,-41.331 106.933,-49.437C107.467,-50.804 108.006,-52.212 108.812,-53.423C111.068,-56.814 115.34,-56.534 117.284,-52.943C118.369,-50.938 118.285,-48.765 117.857,-46.664C117.35,-44.179 116.653,-41.721 115.867,-39.307C112.165,-27.938 106.882,-17.241 101.813,-6.454C98.964,-0.394 96.107,5.662 93.288,11.736C92.694,13.013 91.924,14.273 91.9,16.702C93.377,14.935 94.324,13.856 95.213,12.732C101.279,5.059 107.422,-2.55 114.454,-9.378C116.467,-11.332 118.534,-13.282 120.811,-14.905C127.234,-19.483 133.113,-17.343 135.235,-9.704C135.877,-7.392 136.332,-4.993 136.545,-2.606C137.01,2.579 139.791,5.659 144.625,7.25C149.26,8.777 153.999,9.39 158.851,9.447C169.375,9.568 179.649,7.74 189.875,5.54C201.803,2.975 213.538,-0.285 225.078,-4.251C226.334,-4.682 227.643,-5.102 228.95,-5.183C229.524,-5.219 230.372,-4.506 230.678,-3.917C230.885,-3.52 230.54,-2.542 230.127,-2.181C229.446,-1.585 228.54,-1.206 227.679,-0.856C209.407,6.579 190.728,12.734 171.375,16.678C164.411,18.097 157.356,18.913 150.218,18.585C146.184,18.4 142.212,17.827 138.403,16.437C130.966,13.722 126.457,8.566 125.285,0.632C125.072,-0.808 124.734,-2.23 124.435,-3.656C124.418,-3.739 124.236,-3.788 123.946,-3.965C122.589,-3.542 121.692,-2.328 120.669,-1.325C114.34,4.885 108.744,11.724 103.643,18.96C98.242,26.622 92.958,34.367 87.597,42.057C86.297,43.922 85.03,45.841 83.494,47.5C82.437,48.641 81.041,49.594 79.617,50.236C77.917,51.003 76.185,50.574 74.811,49.219C73.553,47.979 73.298,46.502 73.711,44.785C76.693,32.408 80.492,20.28 84.769,8.294C85.336,6.705 86.25,5.177 86.105,2.737C85.029,3.875 84.32,4.587 83.654,5.337C81.522,7.739 79.468,10.213 77.256,12.537C76.256,13.589 75.045,14.519 73.772,15.217C69.225,17.714 64.319,15.478 63.248,10.388C62.924,8.846 63.105,7.198 63.044,5.599C63.025,5.115 62.969,4.631 62.865,3.364C61.939,4.678 61.419,5.374 60.943,6.099C58.736,9.455 56.673,12.916 54.297,16.148C52.726,18.285 50.859,20.264 48.864,22.016C45.656,24.833 42.001,25.472 38.081,23.374C37.745,23.195 37.337,23.15 36.996,23.052C35.639,23.834 35.443,25.253 34.913,26.441C28.907,39.892 22.971,53.375 16.9,66.797C15.36,70.204 13.525,73.495 11.602,76.705C10.658,78.282 9.376,79.77 7.941,80.914C4.588,83.589 0.079,82.474 -1.931,78.661C-3.037,76.562 -3.259,74.289 -2.873,72.009C-2.359,68.977 -1.792,65.941 -1.016,62.967C2.609,49.09 7.247,35.535 12.092,22.047C12.571,20.712 12.943,19.338 12.801,17.686C12.095,18.416 11.328,19.1 10.691,19.887C6.9,24.573 3.161,29.298 -0.642,33.975C-2.331,36.052 -4.059,38.105 -5.885,40.062C-9.602,44.045 -13.744,46.717 -19.558,43.524C-20.345,44.656 -21.085,45.575 -21.669,46.584C-28.309,58.06 -34.897,69.567 -41.559,81.03C-45.528,87.86 -49.535,94.67 -53.669,101.401C-55.134,103.784 -56.949,105.967 -58.754,108.117C-59.776,109.332 -61.013,110.42 -62.311,111.342C-64.906,113.187 -67.769,113.565 -70.657,112.081C-73.524,110.609 -75.107,108.074 -75.032,104.923C-74.973,102.42 -74.504,99.844 -73.726,97.46C-72.482,93.649 -70.924,89.93 -69.336,86.243C-62.496,70.356 -54.373,55.111 -46.162,39.905C-38.59,25.883 -30.973,11.875 -24.805,-2.845C-22.685,-7.904 -20.85,-13.084 -18.937,-18.228C-18.483,-19.45 -18.238,-20.749 -17.774,-22.467C-18.97,-22.323 -19.738,-22.364 -20.408,-22.128C-22.934,-21.237 -25.382,-20.103 -27.944,-19.348C-31.527,-18.291 -35.167,-17.408 -38.82,-16.628C-40.1,-16.355 -41.041,-15.909 -41.754,-14.819C-47.212,-6.474 -53.873,0.834 -61.066,7.702C-62.172,8.758 -63.061,10.258 -63.542,11.721C-68.141,25.69 -75.887,37.832 -85.205,49.027C-87.845,52.197 -90.952,55.001 -94.015,57.788C-96.105,59.69 -98.64,60.985 -101.427,61.664C-107.495,63.144 -113.277,59.303 -113.988,53.098C-114.243,50.876 -114.012,48.547 -113.655,46.324C-113.318,44.224 -112.658,42.148 -111.909,40.149C-105.681,23.544 -98.106,7.587 -88.313,-7.224C-85.298,-11.781 -81.611,-15.897 -78.168,-20.164C-77.328,-21.206 -76.57,-22.168 -76.1,-23.503C-74.78,-27.254 -71.214,-28.51 -67.634,-26.712C-65.785,-25.783 -64.416,-24.34 -63.316,-22.615C-61.254,-19.382 -60.26,-15.795 -59.799,-12.032C-59.654,-10.855 -59.544,-9.673 -59.387,-8.2C-58.701,-8.503 -58.124,-8.581 -57.841,-8.91C-55.401,-11.754 -53.01,-14.639 -50.615,-17.52C-49.688,-18.634 -49.281,-19.765 -50.231,-21.148C-54.482,-27.332 -49.087,-34.866 -44.008,-36.957C-39.126,-38.966 -34.661,-35.961 -34.611,-30.659C-34.601,-29.612 -34.61,-28.564 -34.61,-27.313C-32.92,-26.888 -31.467,-27.703 -30.006,-28.158C-26.812,-29.155 -23.667,-30.315 -20.475,-31.319C-19.076,-31.759 -17.624,-32.127 -16.171,-32.277C-12.062,-32.703 -8.736,-30.149 -8.276,-26.026C-8.059,-24.067 -8.204,-21.994 -8.587,-20.053C-10.128,-12.245 -13.313,-4.999 -16.513,2.23C-24.922,21.226 -34.895,39.446 -44.173,58.012C-46.447,62.564 -48.674,67.141 -50.846,71.743C-51.456,73.035 -52.424,74.291 -51.948,75.896L-52.191,75.943L-52.049,75.858Z" style="fill-rule:nonzero;"/>
        </g>
    </g>
</svg>
